<svg xmlns="http://www.w3.org/2000/svg" viewBox="0 0 16.27 30.15">
    <path d="M15.26 5.04c.26-1.38-1.49-2.84-2.13-3.54-2.23-2.43-4.87-1.75-6.7.91-1.46 2.23-1.87 5.52-2.6 8.17-1.07 4.28-1.59 8.06-2.32 12.45-.25 1.39-.65 3.04-1.01 4.48-.15.79-.63 1.9-.47 2.63.06.02.15-.11.3-.36.22-.38.44-.76.62-1.16.18-.41.7-1.37 2.03-3.62l-.78-1.29c.34-.47 1.35-1.89 2.71-3.78 2.39-3.32 2.8-3.88 3.07-4.93.71-2.73-.86-3.52-.1-5.28 1.34-3.11 6.94-2.33 7.39-4.68Z"/>
    <path d="M13.19 13.51c.15.07.45-.98 1.32-1.32.82-.32 1.67.19 1.75 0 .08-.18-.76-.45-1.1-1.23-.39-.89.14-1.88-.02-1.93-.16-.06-.42 1.08-1.25 1.41-.82.31-1.75-.31-1.81-.17-.06.13.89.42 1.22 1.22.38.91-.26 1.95-.1 2.03Z"/>
    <style>
        path{
            fill: #000;
        }

        @media (prefers-color-scheme: dark) {
            path{
                fill: #fff;
            }
        }
    </style>
</svg>